<mxfile host="app.diagrams.net" modified="2021-11-30T11:46:37.922Z" agent="5.0 (Windows NT 10.0; WOW64) AppleWebKit/537.36 (KHTML, like Gecko) Chrome/96.0.4664.45 Safari/537.36" etag="-QhH3pz-NDsSaDRwhJAI" version="15.8.7" type="github">
  <diagram id="C5RBs43oDa-KdzZeNtuy" name="Page-1">
    <mxGraphModel dx="868" dy="450" grid="1" gridSize="10" guides="1" tooltips="1" connect="1" arrows="1" fold="1" page="1" pageScale="1" pageWidth="827" pageHeight="1169" math="0" shadow="0">
      <root>
        <mxCell id="WIyWlLk6GJQsqaUBKTNV-0" />
        <mxCell id="WIyWlLk6GJQsqaUBKTNV-1" parent="WIyWlLk6GJQsqaUBKTNV-0" />
        <mxCell id="xdkoSMlnCCujarKHm4Q0-20" style="edgeStyle=orthogonalEdgeStyle;rounded=0;orthogonalLoop=1;jettySize=auto;html=1;entryX=0.443;entryY=0;entryDx=0;entryDy=0;entryPerimeter=0;" edge="1" parent="WIyWlLk6GJQsqaUBKTNV-1" source="xdkoSMlnCCujarKHm4Q0-1" target="xdkoSMlnCCujarKHm4Q0-2">
          <mxGeometry relative="1" as="geometry" />
        </mxCell>
        <mxCell id="xdkoSMlnCCujarKHm4Q0-1" value="START" style="ellipse;whiteSpace=wrap;html=1;" vertex="1" parent="WIyWlLk6GJQsqaUBKTNV-1">
          <mxGeometry x="294" y="30" width="156" height="80" as="geometry" />
        </mxCell>
        <mxCell id="xdkoSMlnCCujarKHm4Q0-19" style="edgeStyle=orthogonalEdgeStyle;rounded=0;orthogonalLoop=1;jettySize=auto;html=1;entryX=0.5;entryY=0;entryDx=0;entryDy=0;" edge="1" parent="WIyWlLk6GJQsqaUBKTNV-1" source="xdkoSMlnCCujarKHm4Q0-2" target="xdkoSMlnCCujarKHm4Q0-4">
          <mxGeometry relative="1" as="geometry" />
        </mxCell>
        <mxCell id="xdkoSMlnCCujarKHm4Q0-2" value="RFID TAG SENDS DATA TO RFID READER" style="rounded=0;whiteSpace=wrap;html=1;" vertex="1" parent="WIyWlLk6GJQsqaUBKTNV-1">
          <mxGeometry x="310" y="150" width="140" height="80" as="geometry" />
        </mxCell>
        <mxCell id="xdkoSMlnCCujarKHm4Q0-3" style="edgeStyle=orthogonalEdgeStyle;rounded=0;orthogonalLoop=1;jettySize=auto;html=1;exitX=0.5;exitY=1;exitDx=0;exitDy=0;" edge="1" parent="WIyWlLk6GJQsqaUBKTNV-1" source="xdkoSMlnCCujarKHm4Q0-1" target="xdkoSMlnCCujarKHm4Q0-1">
          <mxGeometry relative="1" as="geometry" />
        </mxCell>
        <mxCell id="xdkoSMlnCCujarKHm4Q0-18" value="" style="edgeStyle=orthogonalEdgeStyle;rounded=0;orthogonalLoop=1;jettySize=auto;html=1;" edge="1" parent="WIyWlLk6GJQsqaUBKTNV-1" source="xdkoSMlnCCujarKHm4Q0-4" target="xdkoSMlnCCujarKHm4Q0-6">
          <mxGeometry relative="1" as="geometry" />
        </mxCell>
        <mxCell id="xdkoSMlnCCujarKHm4Q0-4" value="READER DECRYPTS MESSAGE AND SENDS TO ATTENDANCE APPLICATION" style="rounded=0;whiteSpace=wrap;html=1;" vertex="1" parent="WIyWlLk6GJQsqaUBKTNV-1">
          <mxGeometry x="310" y="270" width="140" height="80" as="geometry" />
        </mxCell>
        <mxCell id="xdkoSMlnCCujarKHm4Q0-15" value="" style="edgeStyle=orthogonalEdgeStyle;rounded=0;orthogonalLoop=1;jettySize=auto;html=1;" edge="1" parent="WIyWlLk6GJQsqaUBKTNV-1" source="xdkoSMlnCCujarKHm4Q0-6" target="xdkoSMlnCCujarKHm4Q0-7">
          <mxGeometry relative="1" as="geometry" />
        </mxCell>
        <mxCell id="xdkoSMlnCCujarKHm4Q0-6" value="ATTENDANCE SYSTEM CHECKS DATA AND COMPARES WITH ITS DATABASE" style="rounded=0;whiteSpace=wrap;html=1;" vertex="1" parent="WIyWlLk6GJQsqaUBKTNV-1">
          <mxGeometry x="310" y="390" width="140" height="80" as="geometry" />
        </mxCell>
        <mxCell id="xdkoSMlnCCujarKHm4Q0-7" value="&lt;span&gt;DOES DATA&amp;nbsp; &amp;nbsp; &amp;nbsp; &amp;nbsp; &amp;nbsp; &amp;nbsp; MATCH&amp;nbsp; THE DETAILS IN&amp;nbsp; DATABAES?&lt;/span&gt;" style="rhombus;whiteSpace=wrap;html=1;" vertex="1" parent="WIyWlLk6GJQsqaUBKTNV-1">
          <mxGeometry x="305" y="500" width="150" height="120" as="geometry" />
        </mxCell>
        <mxCell id="xdkoSMlnCCujarKHm4Q0-14" style="edgeStyle=orthogonalEdgeStyle;rounded=0;orthogonalLoop=1;jettySize=auto;html=1;entryX=0;entryY=0.5;entryDx=0;entryDy=0;" edge="1" parent="WIyWlLk6GJQsqaUBKTNV-1" source="xdkoSMlnCCujarKHm4Q0-8" target="xdkoSMlnCCujarKHm4Q0-7">
          <mxGeometry relative="1" as="geometry" />
        </mxCell>
        <mxCell id="xdkoSMlnCCujarKHm4Q0-8" value="ATTENDANCE IS NOT TAKEN" style="rounded=0;whiteSpace=wrap;html=1;" vertex="1" parent="WIyWlLk6GJQsqaUBKTNV-1">
          <mxGeometry x="60" y="640" width="120" height="60" as="geometry" />
        </mxCell>
        <mxCell id="xdkoSMlnCCujarKHm4Q0-12" style="edgeStyle=orthogonalEdgeStyle;rounded=0;orthogonalLoop=1;jettySize=auto;html=1;entryX=1;entryY=0.5;entryDx=0;entryDy=0;" edge="1" parent="WIyWlLk6GJQsqaUBKTNV-1" source="xdkoSMlnCCujarKHm4Q0-11" target="xdkoSMlnCCujarKHm4Q0-7">
          <mxGeometry relative="1" as="geometry" />
        </mxCell>
        <mxCell id="xdkoSMlnCCujarKHm4Q0-11" value="IMAGE IS DISPLAYED&amp;amp; ATTENDANCE IS SAVED" style="rounded=0;whiteSpace=wrap;html=1;" vertex="1" parent="WIyWlLk6GJQsqaUBKTNV-1">
          <mxGeometry x="550" y="640" width="120" height="60" as="geometry" />
        </mxCell>
        <mxCell id="xdkoSMlnCCujarKHm4Q0-21" value="NO?" style="text;html=1;align=center;verticalAlign=middle;resizable=0;points=[];autosize=1;strokeColor=none;fillColor=none;" vertex="1" parent="WIyWlLk6GJQsqaUBKTNV-1">
          <mxGeometry x="200" y="540" width="40" height="20" as="geometry" />
        </mxCell>
        <mxCell id="xdkoSMlnCCujarKHm4Q0-22" value="YES?" style="text;html=1;align=center;verticalAlign=middle;resizable=0;points=[];autosize=1;strokeColor=none;fillColor=none;" vertex="1" parent="WIyWlLk6GJQsqaUBKTNV-1">
          <mxGeometry x="485" y="530" width="50" height="20" as="geometry" />
        </mxCell>
      </root>
    </mxGraphModel>
  </diagram>
</mxfile>
